<svg xmlns="http://www.w3.org/2000/svg" viewBox="0 0 840 385" role="img">
  <title>Synthetic destination dashboard</title>
  <rect width="840" height="385" rx="12" fill="#ffffff"/>
  <text x="36" y="34" font-family="Arial, sans-serif" font-size="20" font-weight="700" fill="#17202a" text-anchor="start">Synthetic destination layer: management dashboard</text>
<text x="36" y="56" font-family="Arial, sans-serif" font-size="12" font-weight="400" fill="#68737d" text-anchor="start">Simulates how a destination operator could link demand, revenue, campaigns and guest experience.</text>
<rect x="36" y="78" width="142" height="58" rx="8" fill="#f7f9fb"/>
<text x="50" y="101" font-family="Arial, sans-serif" font-size="11" font-weight="600" fill="#68737d" text-anchor="start">Visitors</text>
<text x="50" y="126" font-family="Arial, sans-serif" font-size="20" font-weight="700" fill="#17202a" text-anchor="start">2.4m</text>
<rect x="194" y="78" width="142" height="58" rx="8" fill="#f7f9fb"/>
<text x="208" y="101" font-family="Arial, sans-serif" font-size="11" font-weight="600" fill="#68737d" text-anchor="start">Revenue</text>
<text x="208" y="126" font-family="Arial, sans-serif" font-size="20" font-weight="700" fill="#17202a" text-anchor="start">$193.2m</text>
<rect x="352" y="78" width="142" height="58" rx="8" fill="#f7f9fb"/>
<text x="366" y="101" font-family="Arial, sans-serif" font-size="11" font-weight="600" fill="#68737d" text-anchor="start">Tourist mix</text>
<text x="366" y="126" font-family="Arial, sans-serif" font-size="20" font-weight="700" fill="#17202a" text-anchor="start">58%</text>
<rect x="510" y="78" width="142" height="58" rx="8" fill="#f7f9fb"/>
<text x="524" y="101" font-family="Arial, sans-serif" font-size="11" font-weight="600" fill="#68737d" text-anchor="start">Campaign ROAS</text>
<text x="524" y="126" font-family="Arial, sans-serif" font-size="20" font-weight="700" fill="#17202a" text-anchor="start">2.5x</text>
<rect x="668" y="78" width="142" height="58" rx="8" fill="#f7f9fb"/>
<text x="682" y="101" font-family="Arial, sans-serif" font-size="11" font-weight="600" fill="#68737d" text-anchor="start">NPS</text>
<text x="682" y="126" font-family="Arial, sans-serif" font-size="20" font-weight="700" fill="#17202a" text-anchor="start">50</text>
<line x1="60" y1="162.0" x2="780" y2="162.0" stroke="#d8dee5" stroke-width="1"/>
<line x1="60" y1="215.3" x2="780" y2="215.3" stroke="#d8dee5" stroke-width="1"/>
<line x1="60" y1="268.7" x2="780" y2="268.7" stroke="#d8dee5" stroke-width="1"/>
<line x1="60" y1="322.0" x2="780" y2="322.0" stroke="#d8dee5" stroke-width="1"/>
<text x="50" y="326.0" font-family="Arial, sans-serif" font-size="10" font-weight="400" fill="#68737d" text-anchor="end">0k</text>
<text x="50" y="299.44870049974855" font-family="Arial, sans-serif" font-size="10" font-weight="400" fill="#68737d" text-anchor="end">50k</text>
<text x="50" y="272.8974009994971" font-family="Arial, sans-serif" font-size="10" font-weight="400" fill="#68737d" text-anchor="end">100k</text>
<text x="50" y="246.34610149924566" font-family="Arial, sans-serif" font-size="10" font-weight="400" fill="#68737d" text-anchor="end">150k</text>
<text x="50" y="219.79480199899425" font-family="Arial, sans-serif" font-size="10" font-weight="400" fill="#68737d" text-anchor="end">200k</text>
<text x="50" y="193.2435024987428" font-family="Arial, sans-serif" font-size="10" font-weight="400" fill="#68737d" text-anchor="end">250k</text>
<text x="50" y="166.69220299849135" font-family="Arial, sans-serif" font-size="10" font-weight="400" fill="#68737d" text-anchor="end">300k</text>
<text x="50" y="140.14090349823994" font-family="Arial, sans-serif" font-size="10" font-weight="400" fill="#68737d" text-anchor="end">350k</text>
<path d="M60.0,218.2 L125.5,221.7 L190.9,218.9 L256.4,197.1 L321.8,179.1 L387.3,225.5 L452.7,228.5 L518.2,227.9 L583.6,200.0 L649.1,216.3 L714.5,218.0 L780.0,215.7" fill="none" stroke="#129c9a" stroke-width="4" stroke-linecap="round" stroke-linejoin="round"/>
<circle cx="60.0" cy="218.2" r="5" fill="#129c9a"/>
<text x="60.0" y="350" font-family="Arial, sans-serif" font-size="10" font-weight="400" fill="#68737d" text-anchor="middle">Apr</text>
<circle cx="780.0" cy="215.7" r="5" fill="#129c9a"/>
<text x="256.4" y="350" font-family="Arial, sans-serif" font-size="10" font-weight="400" fill="#68737d" text-anchor="middle">Jul</text>
<text x="452.7" y="350" font-family="Arial, sans-serif" font-size="10" font-weight="400" fill="#68737d" text-anchor="middle">Oct</text>
<text x="649.1" y="350" font-family="Arial, sans-serif" font-size="10" font-weight="400" fill="#68737d" text-anchor="middle">Jan</text>
<text x="420" y="368" font-family="Arial, sans-serif" font-size="11" font-weight="400" fill="#68737d" text-anchor="middle">12 months synthetic destination visitors</text>
<text x="18" y="242" transform="rotate(-90 18 242)" font-family="Arial, sans-serif" font-size="10" font-weight="400" fill="#68737d" text-anchor="middle">Monthly visitors</text>
</svg>
