<svg xmlns="http://www.w3.org/2000/svg" viewBox="0 0 840 390" role="img">
  <title>Guest experience early warning chart</title>
  <rect width="840" height="390" rx="12" fill="#ffffff"/>
  <text x="36" y="32" font-family="Arial, sans-serif" font-size="20" font-weight="700" fill="#17202a" text-anchor="start">Guest experience early-warning view</text>
<text x="36" y="54" font-family="Arial, sans-serif" font-size="12" font-weight="400" fill="#68737d" text-anchor="start">Synthetic NPS and negative feedback trends highlight crowding and transport as operational levers.</text>
<line x1="62" y1="74.0" x2="782" y2="74.0" stroke="#d8dee5" stroke-width="1"/><line x1="62" y1="131.5" x2="782" y2="131.5" stroke="#d8dee5" stroke-width="1"/><line x1="62" y1="189.0" x2="782" y2="189.0" stroke="#d8dee5" stroke-width="1"/><line x1="62" y1="246.5" x2="782" y2="246.5" stroke="#d8dee5" stroke-width="1"/><line x1="62" y1="304.0" x2="782" y2="304.0" stroke="#d8dee5" stroke-width="1"/>
<path d="M62.0,128.1 L126.7,175.8 L193.5,175.8 L258.2,201.6 L325.0,164.0 L391.8,170.9 L456.5,171.3 L523.3,114.0 L588.0,191.0 L654.8,138.2 L721.6,188.9 L782.0,204.9" fill="none" stroke="#2b8a3e" stroke-width="3"/>
<path d="M62.0,213.8 L126.7,195.7 L193.5,240.5 L258.2,200.9 L325.0,166.5 L391.8,205.5 L456.5,221.7 L523.3,166.0 L588.0,216.1 L654.8,201.8 L721.6,221.3 L782.0,193.2" fill="none" stroke="#c0392b" stroke-width="3"/>
<rect x="560" y="28" width="12" height="12" fill="#2b8a3e"/><text x="578" y="39" font-family="Arial, sans-serif" font-size="11" font-weight="400" fill="#68737d" text-anchor="start">NPS</text><rect x="624" y="28" width="12" height="12" fill="#c0392b"/><text x="642" y="39" font-family="Arial, sans-serif" font-size="11" font-weight="400" fill="#68737d" text-anchor="start">Negative feedback %</text>
<text x="52" y="308.0" font-family="Arial, sans-serif" font-size="10" font-weight="400" fill="#68737d" text-anchor="end">20</text><text x="52" y="262.0" font-family="Arial, sans-serif" font-size="10" font-weight="400" fill="#68737d" text-anchor="end">30</text><text x="52" y="216.0" font-family="Arial, sans-serif" font-size="10" font-weight="400" fill="#68737d" text-anchor="end">40</text><text x="52" y="170.0" font-family="Arial, sans-serif" font-size="10" font-weight="400" fill="#68737d" text-anchor="end">50</text><text x="52" y="124.0" font-family="Arial, sans-serif" font-size="10" font-weight="400" fill="#68737d" text-anchor="end">60</text><text x="52" y="78.0" font-family="Arial, sans-serif" font-size="10" font-weight="400" fill="#68737d" text-anchor="end">70</text>
<text x="20" y="66" font-family="Arial, sans-serif" font-size="10" font-weight="400" fill="#68737d" text-anchor="start">NPS / feedback scale</text><text x="62.0" y="326" font-family="Arial, sans-serif" font-size="10" font-weight="400" fill="#68737d" text-anchor="middle">Apr</text><text x="258.1676646706587" y="326" font-family="Arial, sans-serif" font-size="10" font-weight="400" fill="#68737d" text-anchor="middle">Jul</text><text x="456.49101796407183" y="326" font-family="Arial, sans-serif" font-size="10" font-weight="400" fill="#68737d" text-anchor="middle">Oct</text><text x="654.814371257485" y="326" font-family="Arial, sans-serif" font-size="10" font-weight="400" fill="#68737d" text-anchor="middle">Jan</text>
<rect x="115" y="330" width="72.9" height="16" rx="4" fill="#d4860b" opacity="0.84"/><text x="115" y="368" font-family="Arial, sans-serif" font-size="10" font-weight="400" fill="#68737d" text-anchor="start">Transport</text><rect x="195.9004623626882" y="330" width="61.4" height="16" rx="4" fill="#6f4dbf" opacity="0.84"/><text x="195.9004623626882" y="368" font-family="Arial, sans-serif" font-size="10" font-weight="400" fill="#68737d" text-anchor="start">Crowding</text><rect x="265.34472864186836" y="330" width="92.7" height="16" rx="4" fill="#68737d" opacity="0.84"/><text x="265.34472864186836" y="368" font-family="Arial, sans-serif" font-size="10" font-weight="400" fill="#68737d" text-anchor="start">Other</text><text x="36" y="342" font-family="Arial, sans-serif" font-size="11" font-weight="600" fill="#68737d" text-anchor="start">Feedback themes</text>
</svg>
