<svg xmlns="http://www.w3.org/2000/svg" viewBox="0 0 840 450" role="img">
  <title>Guest experience early warning chart</title>
  <rect width="840" height="450" rx="12" fill="#ffffff"/>
  <text x="36" y="32" font-family="Arial, sans-serif" font-size="20" font-weight="700" fill="#17202a" text-anchor="start">Guest experience early-warning view</text>
<text x="36" y="54" font-family="Arial, sans-serif" font-size="12" font-weight="400" fill="#68737d" text-anchor="start">Dual-axis view for the latest 12 months: NPS on the left axis, negative feedback on the right axis.</text>
<line x1="62" y1="74.0" x2="782" y2="74.0" stroke="#d8dee5" stroke-width="1"/>
<line x1="62" y1="131.5" x2="782" y2="131.5" stroke="#d8dee5" stroke-width="1"/>
<line x1="62" y1="189.0" x2="782" y2="189.0" stroke="#d8dee5" stroke-width="1"/>
<line x1="62" y1="246.5" x2="782" y2="246.5" stroke="#d8dee5" stroke-width="1"/>
<line x1="62" y1="304.0" x2="782" y2="304.0" stroke="#d8dee5" stroke-width="1"/>
<path d="M62.0,145.1 L126.7,173.2 L193.5,141.0 L258.2,206.5 L325.0,173.9 L391.8,163.7 L456.5,147.0 L523.3,166.9 L588.0,164.2 L654.8,161.7 L721.6,173.6 L782.0,162.0" fill="none" stroke="#2b8a3e" stroke-width="3"/>
<path d="M62.0,166.2 L126.7,199.1 L193.5,152.7 L258.2,185.4 L325.0,148.4 L391.8,191.6 L456.5,213.6 L523.3,182.6 L588.0,137.9 L654.8,193.2 L721.6,174.4 L782.0,162.4" fill="none" stroke="#c0392b" stroke-width="3"/>
<rect x="560" y="28" width="12" height="12" fill="#2b8a3e"/><text x="578" y="39" font-family="Arial, sans-serif" font-size="11" font-weight="400" fill="#68737d" text-anchor="start">NPS (LHS)</text>
<rect x="646" y="28" width="12" height="12" fill="#c0392b"/><text x="664" y="39" font-family="Arial, sans-serif" font-size="11" font-weight="400" fill="#68737d" text-anchor="start">Negative feedback % (RHS)</text>
<text x="52" y="308.0" font-family="Arial, sans-serif" font-size="10" font-weight="400" fill="#68737d" text-anchor="end">20</text>
<text x="52" y="262.0" font-family="Arial, sans-serif" font-size="10" font-weight="400" fill="#68737d" text-anchor="end">30</text>
<text x="52" y="216.0" font-family="Arial, sans-serif" font-size="10" font-weight="400" fill="#68737d" text-anchor="end">40</text>
<text x="52" y="170.0" font-family="Arial, sans-serif" font-size="10" font-weight="400" fill="#68737d" text-anchor="end">50</text>
<text x="52" y="124.0" font-family="Arial, sans-serif" font-size="10" font-weight="400" fill="#68737d" text-anchor="end">60</text>
<text x="52" y="78.0" font-family="Arial, sans-serif" font-size="10" font-weight="400" fill="#68737d" text-anchor="end">70</text>
<text x="794" y="308.0" font-family="Arial, sans-serif" font-size="10" font-weight="400" fill="#68737d" text-anchor="start">0%</text>
<text x="794" y="250.5" font-family="Arial, sans-serif" font-size="10" font-weight="400" fill="#68737d" text-anchor="start">10%</text>
<text x="794" y="193.0" font-family="Arial, sans-serif" font-size="10" font-weight="400" fill="#68737d" text-anchor="start">20%</text>
<text x="794" y="135.5" font-family="Arial, sans-serif" font-size="10" font-weight="400" fill="#68737d" text-anchor="start">30%</text>
<text x="794" y="78.0" font-family="Arial, sans-serif" font-size="10" font-weight="400" fill="#68737d" text-anchor="start">40%</text>
<text x="24" y="189" transform="rotate(-90 24 189)" font-family="Arial, sans-serif" font-size="10" font-weight="400" fill="#68737d" text-anchor="middle">NPS</text>
<text x="824" y="189" transform="rotate(-90 824 189)" font-family="Arial, sans-serif" font-size="10" font-weight="400" fill="#68737d" text-anchor="middle">Negative feedback %</text>
<text x="62.0" y="326" font-family="Arial, sans-serif" font-size="10" font-weight="400" fill="#68737d" text-anchor="middle">Apr</text>
<text x="258.1676646706587" y="326" font-family="Arial, sans-serif" font-size="10" font-weight="400" fill="#68737d" text-anchor="middle">Jul</text>
<text x="456.49101796407183" y="326" font-family="Arial, sans-serif" font-size="10" font-weight="400" fill="#68737d" text-anchor="middle">Oct</text>
<text x="654.814371257485" y="326" font-family="Arial, sans-serif" font-size="10" font-weight="400" fill="#68737d" text-anchor="middle">Jan</text>
<rect x="36" y="328" width="768" height="48" rx="8" fill="#f7f9fb" stroke="#d8dee5"/>
<text x="52" y="346" font-family="Arial, sans-serif" font-size="11" font-weight="600" fill="#68737d" text-anchor="start">Average negative feedback composition</text>
<text x="52" y="362" font-family="Arial, sans-serif" font-size="10" font-weight="400" fill="#68737d" text-anchor="start">The average complaint rate is split into modeled issue themes for the displayed 12-month period.</text>
<rect x="52" y="382" width="82.4" height="16" rx="4" fill="#d4860b" opacity="0.84"/>
<text x="52" y="412" font-family="Arial, sans-serif" font-size="10" font-weight="400" fill="#68737d" text-anchor="start">Transport 6.9 pts</text>
<rect x="142.3642957737291" y="382" width="71.6" height="16" rx="4" fill="#6f4dbf" opacity="0.84"/>
<text x="142.3642957737291" y="412" font-family="Arial, sans-serif" font-size="10" font-weight="400" fill="#68737d" text-anchor="start">Crowding 6.0 pts</text>
<rect x="221.9317879408449" y="382" width="60.4" height="16" rx="4" fill="#1f77b4" opacity="0.84"/>
<text x="221.9317879408449" y="412" font-family="Arial, sans-serif" font-size="10" font-weight="400" fill="#68737d" text-anchor="start">Service / queueing 5.0 pts</text>
<rect x="290.3366898284853" y="382" width="53.6" height="16" rx="4" fill="#68737d" opacity="0.84"/>
<text x="290.3366898284853" y="412" font-family="Arial, sans-serif" font-size="10" font-weight="400" fill="#68737d" text-anchor="start">Wayfinding / facilities 4.5 pts</text>
<text x="52" y="428" font-family="Arial, sans-serif" font-size="10" font-weight="400" fill="#68737d" text-anchor="start">Displayed period averages: NPS 50.2, negative feedback 22.3%.</text>
</svg>
